<svg xmlns="http://www.w3.org/2000/svg" viewBox="0 0 140 210" width="140" height="210" fill="none">
  <defs>
    <path id="eggShape" d="M131.2,101.7c4.1,56.2-28.6,86.3-64.6,86.3S-3.7,157.2,1,101.7C6,43,45,1,66.1,1C86,1,127,44,131.2,101.7z"/>
    <clipPath id="clipEgg4"><use href="#eggShape"/></clipPath>
    <linearGradient id="glossGrad" x1="18" y1="16" x2="58" y2="118" gradientUnits="userSpaceOnUse">
      <stop offset="0%" stop-color="#FFFFFF" stop-opacity="0.42"/>
      <stop offset="100%" stop-color="#FFFFFF" stop-opacity="0"/>
    </linearGradient>
  </defs>

  <g transform="translate(4 4)">
    <use href="#eggShape" fill="#F5EFE7" stroke="#B7A99C" stroke-width="3"/>

    <g clip-path="url(#clipEgg4)">
      <path d="M70 8
               L56 34
               L78 58
               L54 84
               L82 116
               L50 148
               L74 176
               L60 195"
            fill="none"
            stroke="#CC0A1A"
            stroke-width="14"
            stroke-linecap="round"
            stroke-linejoin="round"/>

      <path d="M70 8
               L56 34
               L78 58
               L54 84
               L82 116
               L50 148
               L74 176
               L60 195"
            fill="none"
            stroke="#6E0913"
            stroke-width="3.2"
            stroke-linecap="round"
            stroke-linejoin="round"/>

      <g stroke="#E54141" stroke-width="3.2" stroke-linecap="round" opacity="0.95">
        <path d="M29 74 L40 68"/>
        <path d="M92 66 L103 59"/>
        <path d="M24 122 L37 118"/>
        <path d="M96 116 L108 121"/>
        <path d="M32 156 L45 161"/>
        <path d="M94 151 L106 144"/>
      </g>

      <path d="M24 28 C10 48 10 88 18 118 C23 138 30 154 42 168"
            stroke="url(#glossGrad)" stroke-width="13" stroke-linecap="round"/>
      <ellipse cx="42" cy="46" rx="11" ry="20" fill="#FFFFFF" opacity="0.10" transform="rotate(18 42 46)"/>
    </g>
  </g>
</svg>
