<svg xmlns="http://www.w3.org/2000/svg" viewBox="0 0 140 210" width="140" height="210" fill="none">
  <defs>
    <path id="eggShape" d="M131.2,101.7c4.1,56.2-28.6,86.3-64.6,86.3S-3.7,157.2,1,101.7C6,43,45,1,66.1,1C86,1,127,44,131.2,101.7z"/>
    <clipPath id="clipEgg3"><use href="#eggShape"/></clipPath>
    <linearGradient id="glossGrad" x1="18" y1="16" x2="58" y2="118" gradientUnits="userSpaceOnUse">
      <stop offset="0%" stop-color="#FFFFFF" stop-opacity="0.42"/>
      <stop offset="100%" stop-color="#FFFFFF" stop-opacity="0"/>
    </linearGradient>
  </defs>

  <g transform="translate(4 4)">
    <use href="#eggShape" fill="#5B1A8C" stroke="#35104F" stroke-width="3"/>

    <g clip-path="url(#clipEgg3)">
      <ellipse cx="42" cy="58" rx="24" ry="42" fill="#C9A6EA" opacity="0.18"/>

      <path d="M-8 99
               C14 84 34 113 58 99
               C82 85 102 113 141 95
               L141 125
               C103 138 82 109 58 124
               C34 139 14 109 -8 122 Z"
            fill="#E87420"/>

      <path d="M-8 105
               C14 91 34 118 58 105
               C82 91 102 118 141 101"
            fill="none"
            stroke="#FFB066"
            stroke-width="4.5"
            stroke-linecap="round"/>

      <path d="M24 28 C10 48 10 88 18 118 C23 138 30 154 42 168"
            stroke="url(#glossGrad)" stroke-width="13" stroke-linecap="round"/>
      <ellipse cx="42" cy="46" rx="11" ry="20" fill="#FFFFFF" opacity="0.13" transform="rotate(18 42 46)"/>
    </g>
  </g>
</svg>
