<svg xmlns="http://www.w3.org/2000/svg" viewBox="0 0 140 210" width="140" height="210" fill="none">
  <defs>
    <path id="eggShape" d="M131.2,101.7c4.1,56.2-28.6,86.3-64.6,86.3S-3.7,157.2,1,101.7C6,43,45,1,66.1,1C86,1,127,44,131.2,101.7z"/>
    <clipPath id="eggClip3">
      <use href="#eggShape"/>
    </clipPath>
    <pattern id="underDots" width="8" height="8" patternUnits="userSpaceOnUse">
      <circle cx="2" cy="2" r="1.3" fill="#A1172F" opacity="0.22"/>
    </pattern>
    <linearGradient id="glossGrad3" x1="18" y1="16" x2="58" y2="118" gradientUnits="userSpaceOnUse">
      <stop offset="0%" stop-color="#FFFFFF" stop-opacity="0.26"/>
      <stop offset="100%" stop-color="#FFFFFF" stop-opacity="0"/>
    </linearGradient>
  </defs>

  <g transform="translate(5 10)">
    <use href="#eggShape" fill="#2A0D1E" stroke="#130A0F" stroke-width="4"/>

    <g clip-path="url(#eggClip3)">
      <rect x="-8" y="108" width="150" height="82" fill="url(#underDots)"/>

      <path d="M-4 66
               C15 54 29 77 49 66
               C69 55 84 78 104 66
               C117 58 127 62 138 55
               L138 91
               C126 97 116 94 103 102
               C84 113 69 89 49 101
               C29 112 15 89 -4 101 Z"
            fill="#6C1238"/>

      <path d="M-4 98
               C15 87 29 109 49 98
               C69 87 84 110 104 98
               C117 91 127 93 138 87
               L138 123
               C127 129 117 126 103 134
               C84 145 69 121 49 133
               C29 144 15 121 -4 133 Z"
            fill="#4D1772"/>

      <circle cx="97" cy="53" r="12" fill="#A1172F" stroke="#130A0F" stroke-width="3"/>
      <path d="M91 53 L97 47 L103 53 L97 59 Z" fill="#F2D4DE"/>

      <g stroke="#D84A65" stroke-width="4" stroke-linecap="round" opacity="0.85">
        <path d="M17 78 L31 72"/>
        <path d="M99 84 L114 89"/>
        <path d="M20 130 L35 136"/>
        <path d="M98 138 L113 131"/>
      </g>

      <path d="M21 153 C33 146 45 161 58 153 C71 145 83 160 97 152"
            stroke="#8E2148" stroke-width="5" stroke-linecap="round" opacity="0.75"/>

      <path d="M24 28 C10 48 10 88 18 118 C23 138 30 154 42 168"
            stroke="url(#glossGrad3)" stroke-width="12" stroke-linecap="round"/>
      <ellipse cx="42" cy="46" rx="11" ry="20" fill="#FFFFFF" opacity="0.08" transform="rotate(18 42 46)"/>
    </g>
  </g>
</svg>
