<svg xmlns="http://www.w3.org/2000/svg" viewBox="0 0 140 210" width="140" height="210" fill="none">
  <defs>
    <path id="eggShape" d="M131.2,101.7c4.1,56.2-28.6,86.3-64.6,86.3S-3.7,157.2,1,101.7C6,43,45,1,66.1,1C86,1,127,44,131.2,101.7z"/>
    <clipPath id="clipEgg1"><use href="#eggShape"/></clipPath>
    <linearGradient id="glossGrad" x1="18" y1="16" x2="58" y2="118" gradientUnits="userSpaceOnUse">
      <stop offset="0%" stop-color="#FFFFFF" stop-opacity="0.42"/>
      <stop offset="100%" stop-color="#FFFFFF" stop-opacity="0"/>
    </linearGradient>
  </defs>

  <g transform="translate(4 4)">
    <use href="#eggShape" fill="#CC0A1A" stroke="#7E0711" stroke-width="3"/>

    <g clip-path="url(#clipEgg1)">
      <rect x="-5" y="87" width="145" height="36" fill="#E87420"/>
      <rect x="-5" y="84" width="145" height="4" fill="#F6A15F" opacity="0.75"/>
      <rect x="-5" y="123" width="145" height="4" fill="#A74809" opacity="0.35"/>

      <circle cx="96" cy="72" r="10" fill="#E4B43A" stroke="#9A6E12" stroke-width="2.5"/>
      <path d="M96 66.5 L97.9 70.5 L102.3 70.8 L99.1 73.6 L100.1 78 L96 75.8 L91.9 78 L92.9 73.6 L89.7 70.8 L94.1 70.5 Z"
            fill="#FFF3C4"/>

      <path d="M24 28 C10 48 10 88 18 118 C23 138 30 154 42 168"
            stroke="url(#glossGrad)" stroke-width="13" stroke-linecap="round"/>
      <ellipse cx="42" cy="46" rx="11" ry="20" fill="#FFFFFF" opacity="0.14" transform="rotate(18 42 46)"/>
    </g>
  </g>
</svg>
